<svg xmlns="http://www.w3.org/2000/svg" viewBox="0 0 240 340" role="img" aria-hidden="true">
  <defs>
    <linearGradient id="body-kirana" x1="0" y1="0" x2="0" y2="1">
      <stop offset="0%" stop-color="#a9781b"/>
      <stop offset="55%" stop-color="#e0b04d"/>
      <stop offset="100%" stop-color="#f3d38a"/>
    </linearGradient>
    <radialGradient id="sheen-kirana" cx="42%" cy="22%" r="60%">
      <stop offset="0%" stop-color="#ffffff" stop-opacity="0.34"/>
      <stop offset="100%" stop-color="#ffffff" stop-opacity="0"/>
    </radialGradient>
    <radialGradient id="shadow-kirana" cx="50%" cy="50%" r="50%">
      <stop offset="0%" stop-color="#000000" stop-opacity="0.32"/>
      <stop offset="100%" stop-color="#000000" stop-opacity="0"/>
    </radialGradient>
  </defs>

  <ellipse cx="120" cy="322" rx="68" ry="13" fill="url(#shadow-kirana)"/>

  <path d="M58,150 C44,192 39,262 44,330 L64,330 C60,266 63,204 76,167 Z" fill="url(#body-kirana)"/>
  <path d="M182,150 C196,192 201,262 196,330 L176,330 C180,266 177,204 164,167 Z" fill="url(#body-kirana)"/>

  <path d="M48,330 C48,238 63,196 87,173 C67,153 65,118 79,92 C93,66 147,66 161,92 C175,118 173,153 153,173 C177,196 192,238 192,330 Z" fill="url(#body-kirana)"/>
  <path d="M48,330 C48,238 63,196 87,173 C67,153 65,118 79,92 C93,66 147,66 161,92 C175,118 173,153 153,173 C177,196 192,238 192,330 Z" fill="url(#sheen-kirana)"/>

  <circle cx="120" cy="90" r="48" fill="url(#body-kirana)"/>
  <circle cx="120" cy="90" r="48" fill="url(#sheen-kirana)"/>
  <path d="M74,66 C88,44 152,44 166,66 C172,78 171,94 165,104 C163,80 152,68 120,66 C88,68 77,80 75,104 C69,94 68,78 74,66 Z" fill="url(#body-kirana)" opacity="0.92"/>

  <path d="M94,198 L146,198 L149,214 L91,214 Z" fill="#7a4b0f" opacity="0.3"/>
</svg>
