<?xml version="1.0" encoding="UTF-8"?>
<svg xmlns="http://www.w3.org/2000/svg" width="640" height="400" viewBox="0 0 640 400" role="img" aria-label="Data On-Chain untuk Crypto">
  <defs>
    <linearGradient id="bg-crypto-on-chain-dasar" x1="0%" y1="0%" x2="100%" y2="100%">
      <stop offset="0%" stop-color="#3d2208"/>
      <stop offset="100%" stop-color="#78350f"/>
    </linearGradient>
    <radialGradient id="glow-crypto-on-chain-dasar" cx="22%" cy="18%" r="70%">
      <stop offset="0%" stop-color="#fbbf24" stop-opacity="0.35"/>
      <stop offset="100%" stop-color="#fbbf24" stop-opacity="0"/>
    </radialGradient>
  </defs>
  <rect width="640" height="400" fill="url(#bg-crypto-on-chain-dasar)"/>
  <rect width="640" height="400" fill="url(#glow-crypto-on-chain-dasar)"/>
  <!-- Network graph motif: on-chain nodes -->
  <g stroke="#fcd34d" stroke-opacity="0.4" stroke-width="1.5">
    <line x1="150" y1="130" x2="300" y2="90"/>
    <line x1="150" y1="130" x2="260" y2="220"/>
    <line x1="300" y1="90" x2="440" y2="130"/>
    <line x1="260" y1="220" x2="440" y2="130"/>
    <line x1="260" y1="220" x2="380" y2="290"/>
    <line x1="440" y1="130" x2="560" y2="200"/>
    <line x1="380" y1="290" x2="560" y2="200"/>
    <line x1="300" y1="90" x2="440" y2="130" stroke-dasharray="2 5"/>
  </g>
  <g fill="#fbbf24">
    <circle cx="150" cy="130" r="7" opacity="0.9"/>
    <circle cx="300" cy="90" r="5" opacity="0.75"/>
    <circle cx="260" cy="220" r="9" opacity="0.95"/>
    <circle cx="440" cy="130" r="6" opacity="0.8"/>
    <circle cx="380" cy="290" r="5" opacity="0.7"/>
    <circle cx="560" cy="200" r="8" opacity="0.9"/>
  </g>
  <circle cx="80" cy="330" r="90" fill="#fbbf24" fill-opacity="0.06"/>
  <circle cx="590" cy="60" r="60" fill="#fbbf24" fill-opacity="0.07"/>
</svg>
