<?xml version="1.0" encoding="UTF-8"?>
<svg xmlns="http://www.w3.org/2000/svg" width="640" height="400" viewBox="0 0 640 400" role="img" aria-label="Forex &amp; Narasi Makro">
  <defs>
    <linearGradient id="bg-forex-makro-dasar" x1="0%" y1="0%" x2="100%" y2="100%">
      <stop offset="0%" stop-color="#0c2d4a"/>
      <stop offset="100%" stop-color="#164e63"/>
    </linearGradient>
    <radialGradient id="glow-forex-makro-dasar" cx="22%" cy="18%" r="70%">
      <stop offset="0%" stop-color="#22d3ee" stop-opacity="0.38"/>
      <stop offset="100%" stop-color="#22d3ee" stop-opacity="0"/>
    </radialGradient>
    <linearGradient id="line-forex-makro-dasar" x1="0%" y1="0%" x2="100%" y2="0%">
      <stop offset="0%" stop-color="#22d3ee" stop-opacity="0"/>
      <stop offset="50%" stop-color="#67e8f9" stop-opacity="0.9"/>
      <stop offset="100%" stop-color="#22d3ee" stop-opacity="0"/>
    </linearGradient>
  </defs>
  <rect width="640" height="400" fill="url(#bg-forex-makro-dasar)"/>
  <rect width="640" height="400" fill="url(#glow-forex-makro-dasar)"/>
  <g opacity="0.14" stroke="#67e8f9" stroke-width="1">
    <line x1="0" y1="80" x2="640" y2="80"/>
    <line x1="0" y1="160" x2="640" y2="160"/>
    <line x1="0" y1="240" x2="640" y2="240"/>
    <line x1="0" y1="320" x2="640" y2="320"/>
  </g>
  <path d="M -20 300 C 90 260, 150 330, 240 250 S 400 130, 480 190 S 620 90, 680 120" fill="none" stroke="url(#line-forex-makro-dasar)" stroke-width="3.5" stroke-linecap="round"/>
  <path d="M -20 300 C 90 260, 150 330, 240 250 S 400 130, 480 190 S 620 90, 680 120" fill="none" stroke="#22d3ee" stroke-width="1" stroke-opacity="0.5" stroke-linecap="round"/>
  <g fill="#67e8f9">
    <circle cx="240" cy="250" r="4.5" opacity="0.85"/>
    <circle cx="480" cy="190" r="4.5" opacity="0.85"/>
  </g>
  <g stroke="#22d3ee" stroke-opacity="0.35" stroke-dasharray="2 6" stroke-width="1.5">
    <line x1="140" y1="60" x2="140" y2="340"/>
    <line x1="360" y1="60" x2="360" y2="340"/>
    <line x1="560" y1="60" x2="560" y2="340"/>
  </g>
  <circle cx="560" cy="90" r="60" fill="#22d3ee" fill-opacity="0.08"/>
  <circle cx="80" cy="330" r="90" fill="#22d3ee" fill-opacity="0.06"/>
</svg>
