<?xml version="1.0" encoding="UTF-8"?>
<svg xmlns="http://www.w3.org/2000/svg" width="640" height="400" viewBox="0 0 640 400" role="img" aria-label="Manajemen Risiko Crypto">
  <defs>
    <linearGradient id="bg-manajemen-risiko-crypto-pemula" x1="0%" y1="0%" x2="100%" y2="100%">
      <stop offset="0%" stop-color="#3d2208"/>
      <stop offset="100%" stop-color="#78350f"/>
    </linearGradient>
    <radialGradient id="glow-manajemen-risiko-crypto-pemula" cx="22%" cy="18%" r="70%">
      <stop offset="0%" stop-color="#fbbf24" stop-opacity="0.35"/>
      <stop offset="100%" stop-color="#fbbf24" stop-opacity="0"/>
    </radialGradient>
  </defs>
  <rect width="640" height="400" fill="url(#bg-manajemen-risiko-crypto-pemula)"/>
  <rect width="640" height="400" fill="url(#glow-manajemen-risiko-crypto-pemula)"/>
  <g opacity="0.12" stroke="#fcd34d" stroke-width="1">
    <line x1="0" y1="80" x2="640" y2="80"/>
    <line x1="0" y1="160" x2="640" y2="160"/>
    <line x1="0" y1="240" x2="640" y2="240"/>
    <line x1="0" y1="320" x2="640" y2="320"/>
  </g>
  <!-- Shield motif: risk protection -->
  <path d="M 460 90 L 560 118 L 560 210 C 560 268 512 300 460 320 C 408 300 360 268 360 210 L 360 118 Z"
        fill="#fbbf24" fill-opacity="0.08" stroke="#fbbf24" stroke-opacity="0.4" stroke-width="2"/>
  <path d="M 420 205 L 450 235 L 505 168" fill="none" stroke="#fcd34d" stroke-width="6" stroke-linecap="round" stroke-linejoin="round" opacity="0.85"/>
  <!-- Volatility line settling into control -->
  <path d="M -20 150 C 40 210, 70 100, 120 180 S 200 260, 250 190 S 320 220, 360 210"
        fill="none" stroke="#fcd34d" stroke-width="3" stroke-linecap="round" opacity="0.6"/>
  <circle cx="80" cy="320" r="100" fill="#fbbf24" fill-opacity="0.06"/>
  <circle cx="600" cy="60" r="70" fill="#fbbf24" fill-opacity="0.07"/>
</svg>
