<?xml version="1.0" encoding="UTF-8"?>
<svg xmlns="http://www.w3.org/2000/svg" width="640" height="400" viewBox="0 0 640 400" role="img" aria-label="Swing Trading Saham">
  <defs>
    <linearGradient id="bg-swing-trading-teknikal-dasar" x1="0%" y1="0%" x2="100%" y2="100%">
      <stop offset="0%" stop-color="#0b3d2e"/>
      <stop offset="100%" stop-color="#14532d"/>
    </linearGradient>
    <radialGradient id="glow-swing-trading-teknikal-dasar" cx="22%" cy="18%" r="70%">
      <stop offset="0%" stop-color="#34d399" stop-opacity="0.35"/>
      <stop offset="100%" stop-color="#34d399" stop-opacity="0"/>
    </radialGradient>
  </defs>
  <rect width="640" height="400" fill="url(#bg-swing-trading-teknikal-dasar)"/>
  <rect width="640" height="400" fill="url(#glow-swing-trading-teknikal-dasar)"/>
  <g opacity="0.12" stroke="#6ee7b7" stroke-width="1">
    <line x1="0" y1="80" x2="640" y2="80"/>
    <line x1="0" y1="160" x2="640" y2="160"/>
    <line x1="0" y1="240" x2="640" y2="240"/>
    <line x1="0" y1="320" x2="640" y2="320"/>
  </g>
  <!-- Candlestick motif -->
  <g stroke-linecap="round">
    <line x1="180" y1="150" x2="180" y2="280" stroke="#34d399" stroke-width="2" opacity="0.7"/>
    <rect x="165" y="190" width="30" height="55" rx="2" fill="#34d399" fill-opacity="0.75"/>
    <line x1="260" y1="120" x2="260" y2="230" stroke="#f87171" stroke-width="2" opacity="0.5"/>
    <rect x="245" y="140" width="30" height="45" rx="2" fill="#f87171" fill-opacity="0.55"/>
    <line x1="340" y1="90" x2="340" y2="220" stroke="#34d399" stroke-width="2" opacity="0.8"/>
    <rect x="325" y="110" width="30" height="60" rx="2" fill="#34d399" fill-opacity="0.85"/>
    <line x1="420" y1="60" x2="420" y2="190" stroke="#34d399" stroke-width="2" opacity="0.9"/>
    <rect x="405" y="80" width="30" height="70" rx="2" fill="#34d399" fill-opacity="0.9"/>
    <line x1="500" y1="100" x2="500" y2="200" stroke="#f87171" stroke-width="2" opacity="0.45"/>
    <rect x="485" y="115" width="30" height="35" rx="2" fill="#f87171" fill-opacity="0.5"/>
  </g>
  <circle cx="80" cy="330" r="90" fill="#34d399" fill-opacity="0.06"/>
  <circle cx="590" cy="330" r="70" fill="#34d399" fill-opacity="0.06"/>
</svg>
